<mxfile host="app.diagrams.net" agent="Mozilla/5.0 (Windows NT 10.0; Win64; x64) AppleWebKit/537.36 (KHTML, like Gecko) Chrome/128.0.0.0 Safari/537.36" version="24.7.8">
  <diagram name="Página-1" id="oXh7NvJ79_oDEKbb1BWm">
    <mxGraphModel dx="1687" dy="918" grid="1" gridSize="10" guides="1" tooltips="1" connect="1" arrows="1" fold="1" page="1" pageScale="1" pageWidth="827" pageHeight="1169" math="0" shadow="0">
      <root>
        <mxCell id="0" />
        <mxCell id="1" parent="0" />
        <mxCell id="bBsRJ2vkevjrQluGWkJg-18" style="edgeStyle=orthogonalEdgeStyle;rounded=0;orthogonalLoop=1;jettySize=auto;html=1;entryX=0.5;entryY=0;entryDx=0;entryDy=0;" edge="1" parent="1" source="bBsRJ2vkevjrQluGWkJg-1" target="bBsRJ2vkevjrQluGWkJg-2">
          <mxGeometry relative="1" as="geometry" />
        </mxCell>
        <mxCell id="bBsRJ2vkevjrQluGWkJg-1" value="inicio" style="ellipse;whiteSpace=wrap;html=1;" vertex="1" parent="1">
          <mxGeometry x="354" y="20" width="120" height="80" as="geometry" />
        </mxCell>
        <mxCell id="bBsRJ2vkevjrQluGWkJg-19" style="edgeStyle=orthogonalEdgeStyle;rounded=0;orthogonalLoop=1;jettySize=auto;html=1;entryX=0.5;entryY=0;entryDx=0;entryDy=0;" edge="1" parent="1" source="bBsRJ2vkevjrQluGWkJg-2" target="bBsRJ2vkevjrQluGWkJg-6">
          <mxGeometry relative="1" as="geometry" />
        </mxCell>
        <mxCell id="bBsRJ2vkevjrQluGWkJg-2" value="acordar" style="rounded=0;whiteSpace=wrap;html=1;" vertex="1" parent="1">
          <mxGeometry x="354" y="130" width="120" height="60" as="geometry" />
        </mxCell>
        <mxCell id="bBsRJ2vkevjrQluGWkJg-20" style="edgeStyle=orthogonalEdgeStyle;rounded=0;orthogonalLoop=1;jettySize=auto;html=1;entryX=0.5;entryY=0;entryDx=0;entryDy=0;" edge="1" parent="1" source="bBsRJ2vkevjrQluGWkJg-6" target="bBsRJ2vkevjrQluGWkJg-7">
          <mxGeometry relative="1" as="geometry" />
        </mxCell>
        <mxCell id="bBsRJ2vkevjrQluGWkJg-6" value="tomar café da manhã" style="rounded=0;whiteSpace=wrap;html=1;" vertex="1" parent="1">
          <mxGeometry x="354" y="220" width="120" height="60" as="geometry" />
        </mxCell>
        <mxCell id="bBsRJ2vkevjrQluGWkJg-21" value="sim" style="edgeStyle=orthogonalEdgeStyle;rounded=0;orthogonalLoop=1;jettySize=auto;html=1;entryX=1;entryY=0.5;entryDx=0;entryDy=0;" edge="1" parent="1" source="bBsRJ2vkevjrQluGWkJg-7" target="bBsRJ2vkevjrQluGWkJg-8">
          <mxGeometry relative="1" as="geometry" />
        </mxCell>
        <mxCell id="bBsRJ2vkevjrQluGWkJg-22" value="não" style="edgeStyle=orthogonalEdgeStyle;rounded=0;orthogonalLoop=1;jettySize=auto;html=1;entryX=0.5;entryY=0;entryDx=0;entryDy=0;" edge="1" parent="1" source="bBsRJ2vkevjrQluGWkJg-7" target="bBsRJ2vkevjrQluGWkJg-9">
          <mxGeometry relative="1" as="geometry" />
        </mxCell>
        <mxCell id="bBsRJ2vkevjrQluGWkJg-7" value="tenho academia?" style="rhombus;whiteSpace=wrap;html=1;" vertex="1" parent="1">
          <mxGeometry x="374" y="300" width="80" height="80" as="geometry" />
        </mxCell>
        <mxCell id="bBsRJ2vkevjrQluGWkJg-29" style="edgeStyle=orthogonalEdgeStyle;rounded=0;orthogonalLoop=1;jettySize=auto;html=1;" edge="1" parent="1" source="bBsRJ2vkevjrQluGWkJg-8">
          <mxGeometry relative="1" as="geometry">
            <mxPoint x="350" y="440" as="targetPoint" />
            <Array as="points">
              <mxPoint x="280" y="440" />
            </Array>
          </mxGeometry>
        </mxCell>
        <mxCell id="bBsRJ2vkevjrQluGWkJg-8" value="ir na academia" style="rounded=0;whiteSpace=wrap;html=1;" vertex="1" parent="1">
          <mxGeometry x="220" y="310" width="120" height="60" as="geometry" />
        </mxCell>
        <mxCell id="bBsRJ2vkevjrQluGWkJg-23" style="edgeStyle=orthogonalEdgeStyle;rounded=0;orthogonalLoop=1;jettySize=auto;html=1;entryX=0.5;entryY=0;entryDx=0;entryDy=0;" edge="1" parent="1" source="bBsRJ2vkevjrQluGWkJg-9" target="bBsRJ2vkevjrQluGWkJg-10">
          <mxGeometry relative="1" as="geometry" />
        </mxCell>
        <mxCell id="bBsRJ2vkevjrQluGWkJg-9" value="arrumar a mesa" style="rounded=0;whiteSpace=wrap;html=1;" vertex="1" parent="1">
          <mxGeometry x="354" y="410" width="120" height="60" as="geometry" />
        </mxCell>
        <mxCell id="bBsRJ2vkevjrQluGWkJg-24" style="edgeStyle=orthogonalEdgeStyle;rounded=0;orthogonalLoop=1;jettySize=auto;html=1;" edge="1" parent="1" source="bBsRJ2vkevjrQluGWkJg-10">
          <mxGeometry relative="1" as="geometry">
            <mxPoint x="414" y="580" as="targetPoint" />
          </mxGeometry>
        </mxCell>
        <mxCell id="bBsRJ2vkevjrQluGWkJg-35" style="edgeStyle=orthogonalEdgeStyle;rounded=0;orthogonalLoop=1;jettySize=auto;html=1;entryX=0;entryY=0.5;entryDx=0;entryDy=0;" edge="1" parent="1" source="bBsRJ2vkevjrQluGWkJg-10" target="bBsRJ2vkevjrQluGWkJg-33">
          <mxGeometry relative="1" as="geometry" />
        </mxCell>
        <mxCell id="bBsRJ2vkevjrQluGWkJg-10" value="lavar a louça" style="rounded=0;whiteSpace=wrap;html=1;" vertex="1" parent="1">
          <mxGeometry x="354" y="500" width="120" height="60" as="geometry" />
        </mxCell>
        <mxCell id="bBsRJ2vkevjrQluGWkJg-25" value="sim" style="edgeStyle=orthogonalEdgeStyle;rounded=0;orthogonalLoop=1;jettySize=auto;html=1;entryX=1;entryY=0.5;entryDx=0;entryDy=0;" edge="1" parent="1" source="bBsRJ2vkevjrQluGWkJg-13" target="bBsRJ2vkevjrQluGWkJg-14">
          <mxGeometry relative="1" as="geometry" />
        </mxCell>
        <mxCell id="bBsRJ2vkevjrQluGWkJg-26" value="não" style="edgeStyle=orthogonalEdgeStyle;rounded=0;orthogonalLoop=1;jettySize=auto;html=1;" edge="1" parent="1" source="bBsRJ2vkevjrQluGWkJg-13" target="bBsRJ2vkevjrQluGWkJg-15">
          <mxGeometry relative="1" as="geometry" />
        </mxCell>
        <mxCell id="bBsRJ2vkevjrQluGWkJg-13" value="tenho lição?" style="rhombus;whiteSpace=wrap;html=1;" vertex="1" parent="1">
          <mxGeometry x="374" y="585" width="80" height="80" as="geometry" />
        </mxCell>
        <mxCell id="bBsRJ2vkevjrQluGWkJg-30" style="edgeStyle=orthogonalEdgeStyle;rounded=0;orthogonalLoop=1;jettySize=auto;html=1;entryX=0;entryY=0.5;entryDx=0;entryDy=0;" edge="1" parent="1" source="bBsRJ2vkevjrQluGWkJg-14" target="bBsRJ2vkevjrQluGWkJg-15">
          <mxGeometry relative="1" as="geometry">
            <Array as="points">
              <mxPoint x="280" y="715" />
            </Array>
          </mxGeometry>
        </mxCell>
        <mxCell id="bBsRJ2vkevjrQluGWkJg-14" value="Fazer lição" style="rounded=0;whiteSpace=wrap;html=1;" vertex="1" parent="1">
          <mxGeometry x="220" y="595" width="120" height="60" as="geometry" />
        </mxCell>
        <mxCell id="bBsRJ2vkevjrQluGWkJg-27" style="edgeStyle=orthogonalEdgeStyle;rounded=0;orthogonalLoop=1;jettySize=auto;html=1;entryX=0.5;entryY=0;entryDx=0;entryDy=0;" edge="1" parent="1" source="bBsRJ2vkevjrQluGWkJg-15" target="bBsRJ2vkevjrQluGWkJg-16">
          <mxGeometry relative="1" as="geometry" />
        </mxCell>
        <mxCell id="bBsRJ2vkevjrQluGWkJg-15" value="Estudar" style="rounded=0;whiteSpace=wrap;html=1;" vertex="1" parent="1">
          <mxGeometry x="354" y="685" width="120" height="60" as="geometry" />
        </mxCell>
        <mxCell id="bBsRJ2vkevjrQluGWkJg-28" style="edgeStyle=orthogonalEdgeStyle;rounded=0;orthogonalLoop=1;jettySize=auto;html=1;entryX=0.5;entryY=0;entryDx=0;entryDy=0;" edge="1" parent="1" source="bBsRJ2vkevjrQluGWkJg-16" target="bBsRJ2vkevjrQluGWkJg-17">
          <mxGeometry relative="1" as="geometry" />
        </mxCell>
        <mxCell id="bBsRJ2vkevjrQluGWkJg-16" value="Tomar banho" style="rounded=0;whiteSpace=wrap;html=1;" vertex="1" parent="1">
          <mxGeometry x="354" y="775" width="120" height="60" as="geometry" />
        </mxCell>
        <mxCell id="bBsRJ2vkevjrQluGWkJg-32" style="edgeStyle=orthogonalEdgeStyle;rounded=0;orthogonalLoop=1;jettySize=auto;html=1;entryX=0.5;entryY=0;entryDx=0;entryDy=0;" edge="1" parent="1" source="bBsRJ2vkevjrQluGWkJg-17" target="bBsRJ2vkevjrQluGWkJg-31">
          <mxGeometry relative="1" as="geometry" />
        </mxCell>
        <mxCell id="bBsRJ2vkevjrQluGWkJg-17" value="escovar os dentes" style="rounded=0;whiteSpace=wrap;html=1;" vertex="1" parent="1">
          <mxGeometry x="354" y="860" width="120" height="60" as="geometry" />
        </mxCell>
        <mxCell id="bBsRJ2vkevjrQluGWkJg-31" value="ir pra escola" style="rounded=0;whiteSpace=wrap;html=1;shape=ellipse;perimeter=ellipsePerimeter;" vertex="1" parent="1">
          <mxGeometry x="354" y="950" width="120" height="60" as="geometry" />
        </mxCell>
        <mxCell id="bBsRJ2vkevjrQluGWkJg-36" style="edgeStyle=orthogonalEdgeStyle;rounded=0;orthogonalLoop=1;jettySize=auto;html=1;entryX=0;entryY=0.5;entryDx=0;entryDy=0;" edge="1" parent="1" source="bBsRJ2vkevjrQluGWkJg-33" target="bBsRJ2vkevjrQluGWkJg-34">
          <mxGeometry relative="1" as="geometry" />
        </mxCell>
        <mxCell id="bBsRJ2vkevjrQluGWkJg-33" value="muita louça?" style="rhombus;whiteSpace=wrap;html=1;" vertex="1" parent="1">
          <mxGeometry x="500" y="490" width="80" height="80" as="geometry" />
        </mxCell>
        <mxCell id="bBsRJ2vkevjrQluGWkJg-37" style="edgeStyle=orthogonalEdgeStyle;rounded=0;orthogonalLoop=1;jettySize=auto;html=1;entryX=0.75;entryY=0;entryDx=0;entryDy=0;" edge="1" parent="1" source="bBsRJ2vkevjrQluGWkJg-34" target="bBsRJ2vkevjrQluGWkJg-10">
          <mxGeometry relative="1" as="geometry">
            <Array as="points">
              <mxPoint x="670" y="480" />
              <mxPoint x="444" y="480" />
            </Array>
          </mxGeometry>
        </mxCell>
        <mxCell id="bBsRJ2vkevjrQluGWkJg-34" value="chorar" style="rounded=0;whiteSpace=wrap;html=1;" vertex="1" parent="1">
          <mxGeometry x="610" y="500" width="120" height="60" as="geometry" />
        </mxCell>
        <mxCell id="bBsRJ2vkevjrQluGWkJg-40" style="edgeStyle=orthogonalEdgeStyle;rounded=0;orthogonalLoop=1;jettySize=auto;html=1;entryX=0;entryY=0.5;entryDx=0;entryDy=0;" edge="1" parent="1" source="bBsRJ2vkevjrQluGWkJg-38" target="bBsRJ2vkevjrQluGWkJg-1">
          <mxGeometry relative="1" as="geometry">
            <Array as="points">
              <mxPoint x="235" y="60" />
            </Array>
          </mxGeometry>
        </mxCell>
        <mxCell id="bBsRJ2vkevjrQluGWkJg-38" value="Eu" style="shape=umlActor;verticalLabelPosition=bottom;verticalAlign=top;html=1;outlineConnect=0;rotation=-90;" vertex="1" parent="1">
          <mxGeometry x="220" y="80" width="30" height="60" as="geometry" />
        </mxCell>
        <mxCell id="bBsRJ2vkevjrQluGWkJg-39" value="cama" style="rounded=0;whiteSpace=wrap;html=1;" vertex="1" parent="1">
          <mxGeometry x="185" y="130" width="120" height="60" as="geometry" />
        </mxCell>
      </root>
    </mxGraphModel>
  </diagram>
</mxfile>
